<svg width="19" height="16" viewBox="0 0 19 16" fill="none" xmlns="http://www.w3.org/2000/svg">
<g clip-path="url(#clip0_2082_3240)">
<path d="M17.4054 3.33325H1.17811C0.964839 3.33325 0.791748 3.52112 0.791748 3.75261V14.6558C0.791748 14.8873 0.964839 15.0752 1.17811 15.0752H10.7568C10.3573 14.4122 10.1139 13.6309 10.0753 12.7914C9.94857 12.853 9.81759 12.905 9.67811 12.9361V13.3978C9.67811 13.6293 9.50502 13.8171 9.29175 13.8171C9.07847 13.8171 8.90538 13.6293 8.90538 13.3978V12.9361C8.02486 12.7411 7.35993 11.8944 7.35993 10.8816C7.35993 10.6502 7.53302 10.4623 7.74629 10.4623C7.95957 10.4623 8.13266 10.6502 8.13266 10.8816C8.13266 11.4276 8.45682 11.8889 8.90538 12.0625V9.58122C8.02486 9.38622 7.35993 8.53954 7.35993 7.5268C7.35993 6.51406 8.02486 5.66738 8.90538 5.47238V5.01067C8.90538 4.77919 9.07847 4.59132 9.29175 4.59132C9.50502 4.59132 9.67811 4.77919 9.67811 5.01067V5.47238C10.5586 5.66738 11.2236 6.51406 11.2236 7.5268C11.2236 7.75828 11.0505 7.94616 10.8372 7.94616C10.6239 7.94616 10.4508 7.75828 10.4508 7.5268C10.4508 6.9808 10.1267 6.51951 9.67811 6.3459V8.82722C10.2067 8.94422 10.6541 9.29899 10.9299 9.78041C11.681 8.70519 12.8536 7.99857 14.18 7.95328C13.9262 6.78161 13.325 5.75503 12.4997 5.01025H15.8599C16.0732 5.01025 16.2463 5.19812 16.2463 5.42961V8.45483C16.8645 8.79912 17.395 9.30151 17.7917 9.91461V3.75261C17.7917 3.52112 17.6187 3.33325 17.4054 3.33325ZM6.08338 13.3978H2.72357C2.51029 13.3978 2.3372 13.2099 2.3372 12.9784V5.43003C2.3372 5.19854 2.51029 5.01067 2.72357 5.01067H6.08338C4.97529 6.01083 4.26902 7.51757 4.26902 9.20422C4.26902 10.8909 4.97529 12.3976 6.08338 13.3978ZM14.3145 8.78486C12.3973 8.78486 10.8372 10.4782 10.8372 12.5591C10.8372 14.6399 12.3973 16.3333 14.3145 16.3333C16.2316 16.3333 17.7917 14.6399 17.7917 12.5591C17.7917 10.4782 16.232 8.78486 14.3145 8.78486ZM16.9058 11.5975L14.2013 14.533C14.1259 14.6147 14.027 14.6558 13.9281 14.6558C13.8292 14.6558 13.7303 14.6147 13.655 14.533L12.1095 12.8555C11.9584 12.6916 11.9584 12.4265 12.1095 12.2626C12.2606 12.0986 12.5047 12.0986 12.6558 12.2626L13.9281 13.6435L16.3595 11.0045C16.5106 10.8405 16.7547 10.8405 16.9058 11.0045C17.0569 11.1685 17.0569 11.4335 16.9058 11.5975ZM9.67811 9.70074C10.071 9.85254 10.3682 10.2249 10.4362 10.6816C10.299 11.0142 10.1978 11.3668 10.1363 11.7354C10.0108 11.8801 9.85468 11.9942 9.67811 12.0625V9.70074ZM8.13266 7.5268C8.13266 6.9808 8.45682 6.51951 8.90538 6.3459V8.70728C8.45682 8.53409 8.13266 8.0728 8.13266 7.5268Z" fill="#8BB85C"/>
</g>
<defs>
<clipPath id="clip0_2082_3240">
<rect width="19" height="16" fill="white"/>
</clipPath>
</defs>
</svg>
