<svg xmlns="http://www.w3.org/2000/svg" enable-background="new 0 0 24 24" viewBox="0 0 24 24" id="pin"><path fill="#333" d="M15.47,13.45l-1.15,2.29C15.91,16.07,17,16.73,17,17.5c0,1.1-2.24,2-5,2s-5-0.9-5-2
	c0-0.77,1.09-1.43,2.68-1.76l-1.15-2.29C5.85,14.18,4,15.72,4,17.5c0,2.49,3.58,4.5,8,4.5s8-2.01,8-4.5
	C20,15.71,18.15,14.18,15.47,13.45z"></path><path fill="#333" d="M12,2C9.24,2,7,4.24,7,7c0,0.81,0.19,1.58,0.59,2.37l3.96,7.86c0.09,0.16,0.26,0.27,0.45,0.27
	s0.36-0.11,0.45-0.27l3.99-7.94C16.81,8.58,17,7.81,17,7C17,4.24,14.76,2,12,2z M12,9.5c-1.38,0-2.5-1.12-2.5-2.5s1.12-2.5,2.5-2.5
	s2.5,1.12,2.5,2.5S13.38,9.5,12,9.5z"></path><circle cx="12" cy="7" r="1.5" fill="#333"></circle></svg>